<mxfile host="app.diagrams.net" modified="2024-01-11T21:45:16.355Z" agent="Mozilla/5.0 (Windows NT 10.0; Win64; x64) AppleWebKit/537.36 (KHTML, like Gecko) Chrome/120.0.0.0 Safari/537.36" etag="sqyoFx9wV0b-Oz2k1iv6" version="22.1.18" type="github">
  <diagram name="Page-1" id="7tK2lrB-m9mtN5sHl28b">
    <mxGraphModel dx="1173" dy="675" grid="1" gridSize="10" guides="1" tooltips="1" connect="1" arrows="1" fold="1" page="1" pageScale="1" pageWidth="850" pageHeight="1100" math="0" shadow="0">
      <root>
        <mxCell id="0" />
        <mxCell id="1" parent="0" />
        <mxCell id="RSNw5RJd6eypnVvnbPKt-1" value="AWS Cloud" style="points=[[0,0],[0.25,0],[0.5,0],[0.75,0],[1,0],[1,0.25],[1,0.5],[1,0.75],[1,1],[0.75,1],[0.5,1],[0.25,1],[0,1],[0,0.75],[0,0.5],[0,0.25]];outlineConnect=0;gradientColor=none;html=1;whiteSpace=wrap;fontSize=12;fontStyle=0;container=1;pointerEvents=0;collapsible=0;recursiveResize=0;shape=mxgraph.aws4.group;grIcon=mxgraph.aws4.group_aws_cloud_alt;strokeColor=#232F3E;fillColor=none;verticalAlign=top;align=left;spacingLeft=30;fontColor=#232F3E;dashed=0;movable=1;resizable=1;rotatable=1;deletable=1;editable=1;locked=0;connectable=1;" vertex="1" parent="1">
          <mxGeometry x="80" y="53.06" width="725" height="443.88" as="geometry" />
        </mxCell>
        <mxCell id="RSNw5RJd6eypnVvnbPKt-2" value="Region" style="points=[[0,0],[0.25,0],[0.5,0],[0.75,0],[1,0],[1,0.25],[1,0.5],[1,0.75],[1,1],[0.75,1],[0.5,1],[0.25,1],[0,1],[0,0.75],[0,0.5],[0,0.25]];outlineConnect=0;gradientColor=none;html=1;whiteSpace=wrap;fontSize=12;fontStyle=0;container=1;pointerEvents=0;collapsible=0;recursiveResize=0;shape=mxgraph.aws4.group;grIcon=mxgraph.aws4.group_region;strokeColor=#00A4A6;fillColor=none;verticalAlign=top;align=left;spacingLeft=30;fontColor=#147EBA;dashed=1;movable=1;resizable=1;rotatable=1;deletable=1;editable=1;locked=0;connectable=1;" vertex="1" parent="1">
          <mxGeometry x="90" y="80" width="710" height="410" as="geometry" />
        </mxCell>
        <mxCell id="RSNw5RJd6eypnVvnbPKt-112" value="&lt;font style=&quot;font-size: 14px;&quot;&gt;Public Route table&lt;/font&gt;" style="text;html=1;strokeColor=none;fillColor=none;align=center;verticalAlign=middle;whiteSpace=wrap;rounded=0;" vertex="1" parent="RSNw5RJd6eypnVvnbPKt-2">
          <mxGeometry x="590" y="10" width="96" height="30" as="geometry" />
        </mxCell>
        <mxCell id="RSNw5RJd6eypnVvnbPKt-4" value="VPC" style="points=[[0,0],[0.25,0],[0.5,0],[0.75,0],[1,0],[1,0.25],[1,0.5],[1,0.75],[1,1],[0.75,1],[0.5,1],[0.25,1],[0,1],[0,0.75],[0,0.5],[0,0.25]];outlineConnect=0;gradientColor=none;html=1;whiteSpace=wrap;fontSize=12;fontStyle=0;container=1;pointerEvents=0;collapsible=0;recursiveResize=0;shape=mxgraph.aws4.group;grIcon=mxgraph.aws4.group_vpc2;strokeColor=#8C4FFF;fillColor=none;verticalAlign=top;align=left;spacingLeft=30;fontColor=#AAB7B8;dashed=0;movable=1;resizable=1;rotatable=1;deletable=1;editable=1;locked=0;connectable=1;" vertex="1" parent="1">
          <mxGeometry x="130" y="120" width="770" height="390" as="geometry" />
        </mxCell>
        <mxCell id="RSNw5RJd6eypnVvnbPKt-18" value="" style="sketch=0;outlineConnect=0;fontColor=#232F3E;gradientColor=none;fillColor=#8C4FFF;strokeColor=none;dashed=0;verticalLabelPosition=bottom;verticalAlign=top;align=center;html=1;fontSize=12;fontStyle=0;aspect=fixed;pointerEvents=1;shape=mxgraph.aws4.internet_gateway;movable=1;resizable=1;rotatable=1;deletable=1;editable=1;locked=0;connectable=1;" vertex="1" parent="RSNw5RJd6eypnVvnbPKt-4">
          <mxGeometry x="-10" y="131" width="29" height="29" as="geometry" />
        </mxCell>
        <mxCell id="RSNw5RJd6eypnVvnbPKt-43" value="Assets" style="childLayout=tableLayout;recursiveResize=0;strokeColor=#98bf21;fillColor=#A7C942;shadow=1;" vertex="1" parent="RSNw5RJd6eypnVvnbPKt-4">
          <mxGeometry x="440" width="280" height="83" as="geometry" />
        </mxCell>
        <mxCell id="RSNw5RJd6eypnVvnbPKt-44" style="shape=tableRow;horizontal=0;startSize=0;swimlaneHead=0;swimlaneBody=0;top=0;left=0;bottom=0;right=0;dropTarget=0;collapsible=0;recursiveResize=0;expand=0;fontStyle=0;strokeColor=#d79b00;fillColor=#ffe6cc;" vertex="1" parent="RSNw5RJd6eypnVvnbPKt-43">
          <mxGeometry width="280" height="20" as="geometry" />
        </mxCell>
        <mxCell id="RSNw5RJd6eypnVvnbPKt-45" value="Title 1" style="connectable=0;recursiveResize=0;strokeColor=inherit;fillColor=#A7C942;align=center;fontStyle=1;fontColor=#FFFFFF;html=1;" vertex="1" parent="RSNw5RJd6eypnVvnbPKt-44">
          <mxGeometry width="93" height="20" as="geometry">
            <mxRectangle width="93" height="20" as="alternateBounds" />
          </mxGeometry>
        </mxCell>
        <mxCell id="RSNw5RJd6eypnVvnbPKt-46" value="Title 2" style="connectable=0;recursiveResize=0;strokeColor=inherit;fillColor=#A7C942;align=center;fontStyle=1;fontColor=#FFFFFF;html=1;" vertex="1" parent="RSNw5RJd6eypnVvnbPKt-44">
          <mxGeometry x="93" width="94" height="20" as="geometry">
            <mxRectangle width="94" height="20" as="alternateBounds" />
          </mxGeometry>
        </mxCell>
        <mxCell id="RSNw5RJd6eypnVvnbPKt-47" value="Title 3" style="connectable=0;recursiveResize=0;strokeColor=inherit;fillColor=#A7C942;align=center;fontStyle=1;fontColor=#FFFFFF;html=1;" vertex="1" parent="RSNw5RJd6eypnVvnbPKt-44">
          <mxGeometry x="187" width="93" height="20" as="geometry">
            <mxRectangle width="93" height="20" as="alternateBounds" />
          </mxGeometry>
        </mxCell>
        <mxCell id="RSNw5RJd6eypnVvnbPKt-48" value="" style="shape=tableRow;horizontal=0;startSize=0;swimlaneHead=0;swimlaneBody=0;top=0;left=0;bottom=0;right=0;dropTarget=0;collapsible=0;recursiveResize=0;expand=0;fontStyle=0;strokeColor=inherit;fillColor=#ffffff;" vertex="1" parent="RSNw5RJd6eypnVvnbPKt-43">
          <mxGeometry y="20" width="280" height="32" as="geometry" />
        </mxCell>
        <mxCell id="RSNw5RJd6eypnVvnbPKt-49" value="1" style="connectable=0;recursiveResize=0;strokeColor=inherit;fillColor=inherit;align=center;whiteSpace=wrap;html=1;" vertex="1" parent="RSNw5RJd6eypnVvnbPKt-48">
          <mxGeometry width="93" height="32" as="geometry">
            <mxRectangle width="93" height="32" as="alternateBounds" />
          </mxGeometry>
        </mxCell>
        <mxCell id="RSNw5RJd6eypnVvnbPKt-50" value="10.0.0.0/16" style="connectable=0;recursiveResize=0;strokeColor=inherit;fillColor=inherit;align=center;whiteSpace=wrap;html=1;" vertex="1" parent="RSNw5RJd6eypnVvnbPKt-48">
          <mxGeometry x="93" width="94" height="32" as="geometry">
            <mxRectangle width="94" height="32" as="alternateBounds" />
          </mxGeometry>
        </mxCell>
        <mxCell id="RSNw5RJd6eypnVvnbPKt-51" value="Local" style="connectable=0;recursiveResize=0;strokeColor=inherit;fillColor=inherit;align=center;whiteSpace=wrap;html=1;" vertex="1" parent="RSNw5RJd6eypnVvnbPKt-48">
          <mxGeometry x="187" width="93" height="32" as="geometry">
            <mxRectangle width="93" height="32" as="alternateBounds" />
          </mxGeometry>
        </mxCell>
        <mxCell id="RSNw5RJd6eypnVvnbPKt-52" value="" style="shape=tableRow;horizontal=0;startSize=0;swimlaneHead=0;swimlaneBody=0;top=0;left=0;bottom=0;right=0;dropTarget=0;collapsible=0;recursiveResize=0;expand=0;fontStyle=1;strokeColor=inherit;fillColor=#EAF2D3;" vertex="1" parent="RSNw5RJd6eypnVvnbPKt-43">
          <mxGeometry y="52" width="280" height="31" as="geometry" />
        </mxCell>
        <mxCell id="RSNw5RJd6eypnVvnbPKt-53" value="2" style="connectable=0;recursiveResize=0;strokeColor=inherit;fillColor=inherit;whiteSpace=wrap;html=1;" vertex="1" parent="RSNw5RJd6eypnVvnbPKt-52">
          <mxGeometry width="93" height="31" as="geometry">
            <mxRectangle width="93" height="31" as="alternateBounds" />
          </mxGeometry>
        </mxCell>
        <mxCell id="RSNw5RJd6eypnVvnbPKt-54" value="0.0.0..00" style="connectable=0;recursiveResize=0;strokeColor=inherit;fillColor=inherit;whiteSpace=wrap;html=1;" vertex="1" parent="RSNw5RJd6eypnVvnbPKt-52">
          <mxGeometry x="93" width="94" height="31" as="geometry">
            <mxRectangle width="94" height="31" as="alternateBounds" />
          </mxGeometry>
        </mxCell>
        <mxCell id="RSNw5RJd6eypnVvnbPKt-55" value="igw-12345678" style="connectable=0;recursiveResize=0;strokeColor=inherit;fillColor=inherit;whiteSpace=wrap;html=1;" vertex="1" parent="RSNw5RJd6eypnVvnbPKt-52">
          <mxGeometry x="187" width="93" height="31" as="geometry">
            <mxRectangle width="93" height="31" as="alternateBounds" />
          </mxGeometry>
        </mxCell>
        <mxCell id="RSNw5RJd6eypnVvnbPKt-3" value="Availability Zone" style="fillColor=none;strokeColor=#147EBA;dashed=1;verticalAlign=top;fontStyle=0;fontColor=#147EBA;whiteSpace=wrap;html=1;movable=1;resizable=1;rotatable=1;deletable=1;editable=1;locked=0;connectable=1;" vertex="1" parent="RSNw5RJd6eypnVvnbPKt-4">
          <mxGeometry x="-20" width="690" height="390" as="geometry" />
        </mxCell>
        <mxCell id="RSNw5RJd6eypnVvnbPKt-99" value="Assets" style="childLayout=tableLayout;recursiveResize=0;strokeColor=#98bf21;fillColor=#A7C942;shadow=1;" vertex="1" parent="RSNw5RJd6eypnVvnbPKt-4">
          <mxGeometry x="465" y="212" width="280" height="83" as="geometry" />
        </mxCell>
        <mxCell id="RSNw5RJd6eypnVvnbPKt-100" style="shape=tableRow;horizontal=0;startSize=0;swimlaneHead=0;swimlaneBody=0;top=0;left=0;bottom=0;right=0;dropTarget=0;collapsible=0;recursiveResize=0;expand=0;fontStyle=0;strokeColor=#d79b00;fillColor=#ffe6cc;" vertex="1" parent="RSNw5RJd6eypnVvnbPKt-99">
          <mxGeometry width="280" height="20" as="geometry" />
        </mxCell>
        <mxCell id="RSNw5RJd6eypnVvnbPKt-101" value="Title 1" style="connectable=0;recursiveResize=0;strokeColor=inherit;fillColor=#A7C942;align=center;fontStyle=1;fontColor=#FFFFFF;html=1;" vertex="1" parent="RSNw5RJd6eypnVvnbPKt-100">
          <mxGeometry width="93" height="20" as="geometry">
            <mxRectangle width="93" height="20" as="alternateBounds" />
          </mxGeometry>
        </mxCell>
        <mxCell id="RSNw5RJd6eypnVvnbPKt-102" value="Title 2" style="connectable=0;recursiveResize=0;strokeColor=inherit;fillColor=#A7C942;align=center;fontStyle=1;fontColor=#FFFFFF;html=1;" vertex="1" parent="RSNw5RJd6eypnVvnbPKt-100">
          <mxGeometry x="93" width="94" height="20" as="geometry">
            <mxRectangle width="94" height="20" as="alternateBounds" />
          </mxGeometry>
        </mxCell>
        <mxCell id="RSNw5RJd6eypnVvnbPKt-103" value="Title 3" style="connectable=0;recursiveResize=0;strokeColor=inherit;fillColor=#A7C942;align=center;fontStyle=1;fontColor=#FFFFFF;html=1;" vertex="1" parent="RSNw5RJd6eypnVvnbPKt-100">
          <mxGeometry x="187" width="93" height="20" as="geometry">
            <mxRectangle width="93" height="20" as="alternateBounds" />
          </mxGeometry>
        </mxCell>
        <mxCell id="RSNw5RJd6eypnVvnbPKt-104" value="" style="shape=tableRow;horizontal=0;startSize=0;swimlaneHead=0;swimlaneBody=0;top=0;left=0;bottom=0;right=0;dropTarget=0;collapsible=0;recursiveResize=0;expand=0;fontStyle=0;strokeColor=inherit;fillColor=#ffffff;" vertex="1" parent="RSNw5RJd6eypnVvnbPKt-99">
          <mxGeometry y="20" width="280" height="32" as="geometry" />
        </mxCell>
        <mxCell id="RSNw5RJd6eypnVvnbPKt-105" value="1" style="connectable=0;recursiveResize=0;strokeColor=inherit;fillColor=inherit;align=center;whiteSpace=wrap;html=1;" vertex="1" parent="RSNw5RJd6eypnVvnbPKt-104">
          <mxGeometry width="93" height="32" as="geometry">
            <mxRectangle width="93" height="32" as="alternateBounds" />
          </mxGeometry>
        </mxCell>
        <mxCell id="RSNw5RJd6eypnVvnbPKt-106" value="10.0.0.0/16" style="connectable=0;recursiveResize=0;strokeColor=inherit;fillColor=inherit;align=center;whiteSpace=wrap;html=1;" vertex="1" parent="RSNw5RJd6eypnVvnbPKt-104">
          <mxGeometry x="93" width="94" height="32" as="geometry">
            <mxRectangle width="94" height="32" as="alternateBounds" />
          </mxGeometry>
        </mxCell>
        <mxCell id="RSNw5RJd6eypnVvnbPKt-107" value="Local" style="connectable=0;recursiveResize=0;strokeColor=inherit;fillColor=inherit;align=center;whiteSpace=wrap;html=1;" vertex="1" parent="RSNw5RJd6eypnVvnbPKt-104">
          <mxGeometry x="187" width="93" height="32" as="geometry">
            <mxRectangle width="93" height="32" as="alternateBounds" />
          </mxGeometry>
        </mxCell>
        <mxCell id="RSNw5RJd6eypnVvnbPKt-108" value="" style="shape=tableRow;horizontal=0;startSize=0;swimlaneHead=0;swimlaneBody=0;top=0;left=0;bottom=0;right=0;dropTarget=0;collapsible=0;recursiveResize=0;expand=0;fontStyle=1;strokeColor=inherit;fillColor=#EAF2D3;" vertex="1" parent="RSNw5RJd6eypnVvnbPKt-99">
          <mxGeometry y="52" width="280" height="31" as="geometry" />
        </mxCell>
        <mxCell id="RSNw5RJd6eypnVvnbPKt-109" value="2" style="connectable=0;recursiveResize=0;strokeColor=inherit;fillColor=inherit;whiteSpace=wrap;html=1;" vertex="1" parent="RSNw5RJd6eypnVvnbPKt-108">
          <mxGeometry width="93" height="31" as="geometry">
            <mxRectangle width="93" height="31" as="alternateBounds" />
          </mxGeometry>
        </mxCell>
        <mxCell id="RSNw5RJd6eypnVvnbPKt-110" value="0.0.0..00" style="connectable=0;recursiveResize=0;strokeColor=inherit;fillColor=inherit;whiteSpace=wrap;html=1;" vertex="1" parent="RSNw5RJd6eypnVvnbPKt-108">
          <mxGeometry x="93" width="94" height="31" as="geometry">
            <mxRectangle width="94" height="31" as="alternateBounds" />
          </mxGeometry>
        </mxCell>
        <mxCell id="RSNw5RJd6eypnVvnbPKt-111" value="nat:123456" style="connectable=0;recursiveResize=0;strokeColor=inherit;fillColor=inherit;whiteSpace=wrap;html=1;" vertex="1" parent="RSNw5RJd6eypnVvnbPKt-108">
          <mxGeometry x="187" width="93" height="31" as="geometry">
            <mxRectangle width="93" height="31" as="alternateBounds" />
          </mxGeometry>
        </mxCell>
        <mxCell id="RSNw5RJd6eypnVvnbPKt-113" value="&lt;font style=&quot;font-size: 14px;&quot;&gt;Private Route table&lt;/font&gt;" style="text;html=1;strokeColor=none;fillColor=none;align=center;verticalAlign=middle;whiteSpace=wrap;rounded=0;" vertex="1" parent="RSNw5RJd6eypnVvnbPKt-4">
          <mxGeometry x="550" y="170" width="96" height="30" as="geometry" />
        </mxCell>
        <mxCell id="RSNw5RJd6eypnVvnbPKt-16" value="Public subnet" style="points=[[0,0],[0.25,0],[0.5,0],[0.75,0],[1,0],[1,0.25],[1,0.5],[1,0.75],[1,1],[0.75,1],[0.5,1],[0.25,1],[0,1],[0,0.75],[0,0.5],[0,0.25]];outlineConnect=0;gradientColor=none;html=1;whiteSpace=wrap;fontSize=12;fontStyle=0;container=1;pointerEvents=0;collapsible=0;recursiveResize=0;shape=mxgraph.aws4.group;grIcon=mxgraph.aws4.group_security_group;grStroke=0;strokeColor=#7AA116;fillColor=#F2F6E8;verticalAlign=top;align=left;spacingLeft=30;fontColor=#248814;dashed=0;movable=1;resizable=1;rotatable=1;deletable=1;editable=1;locked=0;connectable=1;" vertex="1" parent="1">
          <mxGeometry x="166" y="157" width="414" height="133" as="geometry" />
        </mxCell>
        <mxCell id="RSNw5RJd6eypnVvnbPKt-19" value="" style="sketch=0;points=[[0,0,0],[0.25,0,0],[0.5,0,0],[0.75,0,0],[1,0,0],[0,1,0],[0.25,1,0],[0.5,1,0],[0.75,1,0],[1,1,0],[0,0.25,0],[0,0.5,0],[0,0.75,0],[1,0.25,0],[1,0.5,0],[1,0.75,0]];outlineConnect=0;fontColor=#232F3E;fillColor=#ED7100;strokeColor=#ffffff;dashed=0;verticalLabelPosition=bottom;verticalAlign=top;align=center;html=1;fontSize=12;fontStyle=0;aspect=fixed;shape=mxgraph.aws4.resourceIcon;resIcon=mxgraph.aws4.ec2;movable=1;resizable=1;rotatable=1;deletable=1;editable=1;locked=0;connectable=1;" vertex="1" parent="RSNw5RJd6eypnVvnbPKt-16">
          <mxGeometry x="248" y="29" width="61" height="61" as="geometry" />
        </mxCell>
        <mxCell id="RSNw5RJd6eypnVvnbPKt-21" value="" style="sketch=0;outlineConnect=0;fontColor=#232F3E;gradientColor=none;fillColor=#8C4FFF;strokeColor=none;dashed=0;verticalLabelPosition=bottom;verticalAlign=top;align=center;html=1;fontSize=12;fontStyle=0;aspect=fixed;pointerEvents=1;shape=mxgraph.aws4.nat_gateway;movable=1;resizable=1;rotatable=1;deletable=1;editable=1;locked=0;connectable=1;" vertex="1" parent="RSNw5RJd6eypnVvnbPKt-16">
          <mxGeometry x="71" y="32" width="52.5" height="52.5" as="geometry" />
        </mxCell>
        <mxCell id="RSNw5RJd6eypnVvnbPKt-25" value="NAT GATEWAY" style="text;html=1;strokeColor=none;fillColor=none;align=center;verticalAlign=middle;whiteSpace=wrap;rounded=0;movable=1;resizable=1;rotatable=1;deletable=1;editable=1;locked=0;connectable=1;" vertex="1" parent="RSNw5RJd6eypnVvnbPKt-16">
          <mxGeometry x="67.25" y="90" width="60" height="30" as="geometry" />
        </mxCell>
        <mxCell id="RSNw5RJd6eypnVvnbPKt-35" value="&lt;font style=&quot;font-size: 14px;&quot;&gt;10.0,0,0/24&lt;/font&gt;" style="text;html=1;strokeColor=none;fillColor=none;align=center;verticalAlign=middle;whiteSpace=wrap;rounded=0;" vertex="1" parent="RSNw5RJd6eypnVvnbPKt-16">
          <mxGeometry x="304" y="93" width="96" height="30" as="geometry" />
        </mxCell>
        <mxCell id="RSNw5RJd6eypnVvnbPKt-17" value="Private subnet" style="points=[[0,0],[0.25,0],[0.5,0],[0.75,0],[1,0],[1,0.25],[1,0.5],[1,0.75],[1,1],[0.75,1],[0.5,1],[0.25,1],[0,1],[0,0.75],[0,0.5],[0,0.25]];outlineConnect=0;gradientColor=none;html=1;whiteSpace=wrap;fontSize=12;fontStyle=0;container=1;pointerEvents=0;collapsible=0;recursiveResize=0;shape=mxgraph.aws4.group;grIcon=mxgraph.aws4.group_security_group;grStroke=0;strokeColor=#00A4A6;fillColor=#E6F6F7;verticalAlign=top;align=left;spacingLeft=30;fontColor=#147EBA;dashed=0;movable=1;resizable=1;rotatable=1;deletable=1;editable=1;locked=0;connectable=1;" vertex="1" parent="1">
          <mxGeometry x="168" y="307" width="412" height="130" as="geometry" />
        </mxCell>
        <mxCell id="RSNw5RJd6eypnVvnbPKt-41" value="&lt;font style=&quot;font-size: 14px;&quot;&gt;10.0.2.0/23&lt;/font&gt;" style="text;html=1;strokeColor=none;fillColor=none;align=center;verticalAlign=middle;whiteSpace=wrap;rounded=0;" vertex="1" parent="RSNw5RJd6eypnVvnbPKt-17">
          <mxGeometry x="316" y="93" width="96" height="30" as="geometry" />
        </mxCell>
        <mxCell id="RSNw5RJd6eypnVvnbPKt-20" value="" style="sketch=0;points=[[0,0,0],[0.25,0,0],[0.5,0,0],[0.75,0,0],[1,0,0],[0,1,0],[0.25,1,0],[0.5,1,0],[0.75,1,0],[1,1,0],[0,0.25,0],[0,0.5,0],[0,0.75,0],[1,0.25,0],[1,0.5,0],[1,0.75,0]];outlineConnect=0;fontColor=#232F3E;fillColor=#ED7100;strokeColor=#ffffff;dashed=0;verticalLabelPosition=bottom;verticalAlign=top;align=center;html=1;fontSize=12;fontStyle=0;aspect=fixed;shape=mxgraph.aws4.resourceIcon;resIcon=mxgraph.aws4.ec2;movable=1;resizable=1;rotatable=1;deletable=1;editable=1;locked=0;connectable=1;" vertex="1" parent="1">
          <mxGeometry x="417" y="350" width="58" height="58" as="geometry" />
        </mxCell>
        <mxCell id="RSNw5RJd6eypnVvnbPKt-24" value="" style="shape=singleArrow;direction=south;whiteSpace=wrap;html=1;movable=1;resizable=1;rotatable=1;deletable=1;editable=1;locked=0;connectable=1;" vertex="1" parent="1">
          <mxGeometry x="390" y="281" width="20" height="40" as="geometry" />
        </mxCell>
        <mxCell id="RSNw5RJd6eypnVvnbPKt-26" value="" style="outlineConnect=0;dashed=0;verticalLabelPosition=bottom;verticalAlign=top;align=center;html=1;shape=mxgraph.aws3.internet_2;fillColor=#D2D3D3;gradientColor=none;" vertex="1" parent="1">
          <mxGeometry y="230" width="70" height="50" as="geometry" />
        </mxCell>
        <mxCell id="RSNw5RJd6eypnVvnbPKt-31" value="" style="endArrow=classic;html=1;rounded=0;" edge="1" parent="1" source="RSNw5RJd6eypnVvnbPKt-1">
          <mxGeometry width="50" height="50" relative="1" as="geometry">
            <mxPoint x="84.31999999999994" y="269.21000000000004" as="sourcePoint" />
            <mxPoint x="130" y="265.8249185667754" as="targetPoint" />
          </mxGeometry>
        </mxCell>
        <mxCell id="RSNw5RJd6eypnVvnbPKt-42" value="&lt;font style=&quot;font-size: 14px;&quot;&gt;10.0.0.0./16&lt;/font&gt;" style="text;html=1;strokeColor=none;fillColor=none;align=center;verticalAlign=middle;whiteSpace=wrap;rounded=0;" vertex="1" parent="1">
          <mxGeometry x="630" y="460" width="96" height="30" as="geometry" />
        </mxCell>
      </root>
    </mxGraphModel>
  </diagram>
</mxfile>
